# Blender v2.81 (sub 16) OBJ File: 'board2.blend'
# www.blender.org
mtllib board4.mtl
o Cube
v 5.000000 0.060000 -5.000000
v 5.000000 -0.060000 -5.000000
v 5.000000 0.060000 5.000000
v 5.000000 -0.060000 5.000000
v -5.000000 0.060000 -5.000000
v -5.000000 -0.060000 -5.000000
v -5.000000 0.060000 5.000000
v -5.000000 -0.060000 5.000000
vt 0.999900 0.000100
vt 0.000100 0.999900
vt 0.000100 0.000100
vt 0.277117 0.378652
vt 0.209867 0.445902
vt 0.209867 0.378652
vt 0.277117 0.176902
vt 0.209867 0.244152
vt 0.209867 0.176902
vt 0.209867 0.311402
vt 0.142617 0.378652
vt 0.142617 0.311402
vt 0.277117 0.311402
vt 0.277117 0.244152
vt 0.999900 0.999900
vt 0.277117 0.445902
vn 0.0000 1.0000 0.0000
vn 0.0000 0.0000 1.0000
vn -1.0000 0.0000 0.0000
vn 0.0000 -1.0000 0.0000
vn 1.0000 0.0000 0.0000
vn 0.0000 0.0000 -1.0000
g Cube_Cube_Board_Center
usemtl Board_Center
s off
f 5/1/1 3/2/1 1/3/1
f 3/4/2 8/5/2 4/6/2
f 7/7/3 6/8/3 8/9/3
f 2/10/4 8/11/4 6/12/4
f 1/13/5 4/6/5 2/10/5
f 5/14/6 2/10/6 6/8/6
f 5/1/1 7/15/1 3/2/1
f 3/4/2 7/16/2 8/5/2
f 7/7/3 5/14/3 6/8/3
f 2/10/4 4/6/4 8/11/4
f 1/13/5 3/4/5 4/6/5
f 5/14/6 1/13/6 2/10/6
