# Blender v2.81 (sub 16) OBJ File: 'board.blend'
# www.blender.org
mtllib board.mtl
o Cube
v 5.000000 0.060000 -5.000000
v 5.000000 -0.060000 -5.000000
v 5.000000 0.060000 5.000000
v 5.000000 -0.060000 5.000000
v -5.000000 0.060000 -5.000000
v -5.000000 -0.060000 -5.000000
v -5.000000 0.060000 5.000000
v -5.000000 -0.060000 5.000000
vt 0.000100 0.000100
vt 0.999900 0.000100
vt 0.999900 0.999900
vt 0.000100 0.999900
vt 0.468750 0.017578
vt 0.718750 0.017578
vt 0.718750 0.267578
vt 0.468750 0.267578
vt 0.218750 0.517578
vt 0.468750 0.517578
vt 0.468750 0.767578
vt 0.218750 0.767578
vt 0.718750 0.517578
vt 0.718750 0.767578
vt 0.718750 1.017578
vt 0.468750 1.017578
vn 0.0000 1.0000 0.0000
vn -1.0000 0.0000 0.0000
vn 0.0000 -1.0000 0.0000
vn 1.0000 0.0000 0.0000
vn 0.0000 0.0000 1.0000
vn 0.0000 0.0000 -1.0000
g Cube_Cube_Board_Center
usemtl Board_Center
s off
f 1/1/1 5/2/1 7/3/1 3/4/1
g Cube_Cube_green
usemtl green
f 8/5/2 7/6/2 5/7/2 6/8/2
f 6/9/3 2/10/3 4/11/3 8/12/3
f 2/10/4 1/13/4 3/14/4 4/11/4
g Cube_Cube_red
usemtl red
f 4/11/5 3/14/5 7/15/5 8/16/5
f 6/8/6 5/7/6 1/13/6 2/10/6
